<?xml version="1.0" standalone="no"?>
<!DOCTYPE svg PUBLIC "-//W3C//DTD SVG 20010904//EN"
 "http://www.w3.org/TR/2001/REC-SVG-20010904/DTD/svg10.dtd">
<svg version="1.0" xmlns="http://www.w3.org/2000/svg"
 width="400.000000pt" height="400.000000pt" viewBox="0 0 400.000000 400.000000"
 preserveAspectRatio="xMidYMid meet">
<metadata>
Created by potrace 1.14, written by Peter Selinger 2001-2017
</metadata>
<g transform="translate(0.000000,400.000000) scale(0.100000,-0.100000)"
fill="#000000" stroke="none">
<path d="M2771 3584 c-51 -37 -222 -54 -273 -28 -41 21 -66 17 -96 -16 -22
-24 -37 -30 -74 -31 -32 -2 -45 -6 -41 -15 2 -7 -11 -17 -34 -24 -54 -18 -201
-89 -209 -101 -4 -7 2 -7 17 1 13 6 5 -5 -19 -25 -72 -63 -107 -126 -127 -235
-3 -14 0 -49 6 -78 9 -45 13 -51 22 -38 11 15 18 14 77 -9 35 -14 68 -29 73
-34 11 -11 38 -2 53 17 7 9 20 13 33 9 12 -3 19 -1 15 4 -3 6 6 7 23 3 36 -8
53 -23 19 -17 -24 5 -31 -3 -27 -29 0 -5 -4 -8 -10 -8 -8 0 -7 -6 2 -17 13
-15 11 -16 -16 -10 -33 7 -37 9 53 -29 18 -8 44 -14 58 -14 14 0 35 -5 47 -12
13 -7 63 -11 127 -10 l105 1 23 -35 c12 -19 20 -39 17 -44 -3 -5 -1 -11 5 -15
5 -3 10 2 11 12 0 10 3 29 5 43 6 30 24 51 24 27 0 -9 7 -17 15 -17 8 0 22
-11 31 -25 9 -14 19 -23 22 -20 6 6 12 44 14 87 1 25 1 26 21 8 11 -11 17 -26
14 -34 -3 -8 -1 -17 6 -20 9 -3 9 -5 0 -5 -16 -1 -17 -47 -1 -57 7 -5 9 -1 6
13 -5 20 -4 20 22 5 17 -10 26 -22 22 -31 -4 -10 -1 -12 7 -6 10 5 11 2 7 -12
-8 -24 2 -55 15 -47 5 3 6 -2 3 -11 -6 -14 -17 -15 -68 -10 -84 8 -391 26
-506 30 l-95 3 107 -8 c59 -5 112 -11 118 -15 5 -3 10 -18 9 -33 0 -22 -2 -23
-8 -9 -6 17 -8 16 -19 -8 -12 -26 -32 -26 -32 -1 0 27 -53 49 -138 57 -87 8
-130 -1 -224 -46 -36 -18 -40 -18 -117 0 -93 21 -146 16 -210 -22 -42 -25 -43
-26 -38 -67 8 -60 43 -216 56 -248 18 -47 47 -68 94 -68 48 0 50 2 129 154 29
56 47 104 48 126 0 48 11 29 43 -71 54 -170 121 -209 360 -209 155 0 206 11
246 50 14 15 44 35 66 44 22 10 54 24 70 31 30 14 54 18 87 16 12 -1 15 -6 11
-18 -5 -12 -3 -14 7 -8 9 5 11 4 6 -4 -4 -6 -12 -9 -17 -6 -5 4 -9 -2 -9 -12
0 -15 -2 -16 -10 -3 -7 11 -10 11 -10 2 0 -13 -35 -13 -57 1 -8 5 -13 3 -13
-4 0 -7 -3 -9 -7 -6 -3 4 -12 -2 -20 -13 -11 -15 -21 -18 -45 -13 -24 5 -30 3
-26 -8 3 -8 12 -13 20 -11 12 2 14 -9 13 -50 -1 -29 -7 -70 -12 -90 -6 -22 -7
-38 -2 -40 6 -2 5 -17 -2 -36 -6 -18 -8 -39 -5 -47 3 -8 1 -15 -4 -15 -5 0
-11 8 -13 18 -3 11 -5 8 -6 -9 -1 -29 -46 -58 -55 -36 -5 13 -10 -18 -6 -42 1
-12 -1 -13 -13 -2 -13 10 -15 8 -11 -18 4 -25 2 -29 -14 -24 -12 3 -22 -2 -26
-12 -5 -15 -11 -13 -42 15 l-37 32 -18 -29 -19 -28 0 24 c0 14 -12 38 -27 53
-28 29 -53 37 -53 16 0 -9 -3 -10 -8 -2 -12 19 -72 26 -78 9 -7 -18 -21 -19
-27 -2 -2 6 -2 2 0 -10 2 -17 -1 -23 -16 -23 -11 0 -23 5 -27 12 -5 7 -2 9 8
6 11 -5 14 0 10 18 -3 15 -11 24 -23 24 -11 0 -27 8 -37 18 -10 10 -24 16 -30
14 -7 -2 -15 5 -19 15 -3 10 -11 21 -17 26 -17 11 14 27 57 27 24 0 44 7 57
20 19 19 19 23 6 49 -24 45 -43 46 -51 3 l-6 -37 -77 0 c-42 -1 -86 -5 -97 -9
-11 -5 -29 -8 -40 -8 -17 2 -17 0 3 -8 13 -5 30 -17 38 -25 9 -8 22 -15 31
-15 13 0 13 -3 3 -15 -18 -22 -29 -19 -40 11 l-10 26 -35 -39 c-19 -21 -37
-52 -41 -69 -5 -30 16 -115 36 -139 7 -8 17 -144 20 -253 0 -32 16 -19 39 31
19 42 19 42 0 45 -16 3 -18 6 -9 17 7 8 10 20 7 27 -4 8 -6 7 -6 -4 -1 -10 -5
-18 -11 -18 -5 0 -7 6 -4 14 3 8 1 17 -4 20 -16 10 -5 126 14 147 16 18 16 19
-2 19 -11 0 -25 5 -32 12 -14 14 -16 42 -3 34 5 -3 18 13 29 36 l19 42 17 -32
c21 -40 46 -53 85 -46 21 4 31 3 31 -5 0 -7 3 -10 8 -8 4 2 15 -4 25 -15 19
-20 20 -20 -43 -20 l-45 0 45 -8 c25 -5 87 -9 137 -8 105 1 118 -5 127 -60 3
-20 8 -48 10 -60 3 -13 2 -21 -1 -18 -3 3 -14 -4 -24 -16 -12 -13 -19 -16 -19
-8 0 9 -6 7 -19 -6 -10 -10 -17 -22 -15 -25 6 -11 -22 -30 -31 -21 -4 4 -2 -3
4 -15 12 -24 9 -27 -21 -24 -10 1 -18 -3 -18 -10 0 -7 -3 -9 -7 -6 -3 4 -12 2
-20 -4 -10 -9 -13 -8 -13 1 0 9 -7 7 -21 -6 -20 -18 -20 -18 -14 9 5 17 3 27
-4 27 -6 0 -8 7 -5 15 4 10 -4 20 -27 30 -19 8 -28 14 -21 15 14 0 17 30 2 30
-5 0 -12 -15 -16 -34 -3 -19 -12 -37 -19 -40 -9 -3 -11 2 -8 15 3 10 1 19 -5
19 -5 0 -12 -11 -14 -25 -5 -22 2 -30 24 -26 4 0 5 -8 3 -19 -2 -11 1 -20 7
-20 6 0 8 -3 5 -6 -4 -4 -13 -1 -22 6 -13 11 -14 10 -9 -5 6 -15 5 -15 -14 -4
-14 9 -18 17 -11 25 6 8 5 13 -4 17 -17 6 -70 -90 -60 -107 4 -6 8 -19 8 -28
2 -21 44 -70 55 -63 4 2 7 -3 7 -11 0 -8 -6 -13 -13 -10 -9 3 -11 -1 -8 -12 5
-15 4 -15 -8 -2 -15 18 -48 15 -48 -4 0 -7 -13 -30 -30 -51 -17 -21 -30 -43
-30 -50 0 -9 -8 -11 -22 -7 -14 3 -19 1 -14 -6 10 -16 -55 -101 -77 -102 -16
0 -16 2 -2 29 9 19 11 32 5 36 -6 3 -10 -4 -11 -17 0 -13 -3 -17 -6 -10 -3 8
-12 3 -26 -15 -12 -15 -21 -30 -20 -33 3 -11 -20 -29 -30 -23 -5 3 -7 2 -4 -4
3 -5 -12 -27 -35 -49 -22 -21 -37 -33 -33 -25 6 10 4 13 -7 8 -9 -3 -21 0 -27
6 -14 14 -35 18 -86 19 -31 0 -45 -6 -66 -30 -15 -17 -30 -28 -33 -25 -3 4 -6
1 -6 -5 0 -6 -8 -10 -17 -10 -40 1 -79 -12 -93 -33 -8 -12 -32 -37 -52 -57
-40 -37 -51 -66 -21 -55 11 5 14 3 8 -6 -10 -18 27 2 44 23 7 9 29 18 50 21
57 10 161 47 155 57 -3 4 -2 8 3 9 33 3 53 9 86 23 20 9 37 14 37 10 0 -3 -18
-22 -40 -42 -24 -20 -38 -42 -35 -50 3 -7 1 -21 -5 -31 -15 -30 -18 -114 -5
-147 7 -18 10 -36 6 -40 -4 -5 -13 -27 -20 -49 -8 -22 -23 -47 -33 -57 -18
-15 -18 -17 -1 -20 10 -2 -10 -7 -45 -12 -34 -4 -67 -4 -72 -1 -6 3 -10 1 -10
-4 0 -6 -11 -11 -25 -11 -15 0 -40 -8 -58 -17 -18 -9 -57 -21 -87 -28 -49 -10
-55 -14 -58 -38 -4 -33 34 -261 54 -327 8 -25 14 -57 14 -72 0 -26 3 -28 42
-28 l41 0 -6 188 c-6 203 0 237 45 265 29 19 136 37 209 35 57 -1 87 10 119
42 14 14 34 18 92 18 76 0 130 -21 186 -71 l22 -21 -22 -23 c-20 -21 -29 -23
-130 -23 -76 0 -119 -5 -148 -16 -64 -26 -140 -6 -125 33 2 7 -1 15 -8 19 -7
4 -9 4 -5 -1 4 -4 3 -16 -2 -26 -7 -12 -27 -19 -67 -24 -32 -4 -65 -9 -75 -11
-29 -8 -38 -62 -38 -225 l0 -159 262 0 261 0 36 27 36 26 -24 -26 -24 -27 69
0 69 0 1 51 c1 47 0 50 -20 45 -16 -4 -13 1 11 20 18 14 62 62 98 107 99 124
95 140 -81 254 -58 38 -89 64 -86 74 3 11 2 11 -6 1 -7 -10 -19 -9 -61 8 -28
11 -62 20 -74 21 -21 1 -20 1 3 8 17 5 37 2 61 -10 53 -26 68 -12 47 45 l-17
45 43 -27 c23 -15 71 -53 107 -85 36 -31 89 -72 119 -90 57 -34 72 -62 85
-150 4 -23 10 -46 15 -51 4 -4 -1 -17 -11 -27 -12 -12 -19 -34 -20 -61 0 -24
-2 -54 -3 -66 -2 -13 3 -26 10 -29 41 -15 98 78 99 164 1 30 -3 57 -8 60 -5 3
-3 9 4 14 11 6 8 14 -11 35 -24 26 -24 26 -2 13 19 -12 62 -101 62 -128 0 -24
91 -190 107 -194 10 -3 34 -8 55 -11 20 -4 39 -13 42 -21 5 -13 102 -15 741
-15 l735 0 0 1014 c0 1009 0 1014 -20 1009 -11 -3 -31 2 -45 11 -13 9 -33 16
-43 16 -21 0 -52 -29 -52 -48 0 -7 -6 -22 -12 -35 -7 -12 -13 -23 -14 -25 0
-1 -24 5 -52 14 -49 16 -53 16 -72 -1 -24 -21 -25 -46 -6 -84 17 -32 12 -42
-33 -64 -49 -24 -96 -22 -115 5 -18 26 -21 68 -5 68 8 0 8 5 -1 15 -22 26 -36
16 -66 -47 -18 -39 -35 -62 -44 -61 -8 1 -32 4 -53 8 -36 6 -38 8 -32 33 18
76 163 368 209 422 57 66 118 302 117 448 -1 76 -7 107 -31 174 -17 45 -30 89
-30 99 0 14 -15 47 -93 196 -7 13 -17 23 -23 23 -12 0 -54 83 -54 107 0 14 3
14 22 -3 12 -10 2 6 -21 36 -71 91 -95 106 -206 128 -108 22 -134 24 -151 11
-6 -5 -22 3 -40 22 -16 18 -48 40 -71 51 -23 10 -45 23 -48 28 -4 6 -11 8 -16
4 -5 -3 -15 -1 -22 4 -25 21 -81 24 -106 6z m46 -19 c0 -8 -9 -15 -19 -15 -18
0 -24 11 -11 23 12 12 30 7 30 -8z m-357 -236 c0 11 32 16 42 5 10 -9 -4 -45
-16 -41 -6 3 -10 10 -8 16 3 14 -4 14 -28 1 -13 -7 -21 -7 -26 2 -5 7 -3 8 6
3 10 -6 12 -4 6 10 -5 15 -4 16 9 5 10 -8 15 -9 15 -1z m-173 -25 c-3 -3 -12
-4 -19 -1 -8 3 -5 6 6 6 11 1 17 -2 13 -5z m427 -15 c-3 -5 -10 -7 -15 -3 -5
3 -7 10 -3 15 3 5 10 7 15 3 5 -3 7 -10 3 -15z m-289 -19 c3 -5 1 -10 -4 -10
-6 0 -11 5 -11 10 0 6 2 10 4 10 3 0 8 -4 11 -10z m313 -40 c3 -9 -1 -9 -16
-1 -12 6 -23 7 -26 2 -9 -14 -40 -2 -54 19 -10 17 -9 18 19 10 28 -8 29 -8 17
8 -9 12 -4 11 22 -5 19 -12 36 -27 38 -33z m12 40 c0 -5 -4 -10 -10 -10 -5 0
-10 5 -10 10 0 6 5 10 10 10 6 0 10 -4 10 -10z m-226 -29 c13 -14 14 -21 5
-27 -7 -4 -10 -3 -6 3 4 6 0 13 -8 17 -8 3 -15 10 -15 16 0 14 4 13 24 -9z
m-177 -37 c-3 -3 -12 -4 -19 -1 -8 3 -5 6 6 6 11 1 17 -2 13 -5z m63 -13 c0
-4 -11 -6 -25 -3 -14 2 -25 6 -25 8 0 2 11 4 25 4 14 0 25 -4 25 -9z m-206
-10 c16 -6 17 -9 5 -13 -8 -3 -26 0 -40 8 -21 12 -22 13 -4 13 11 0 29 -4 39
-8z m-39 -31 c-3 -5 -13 -10 -21 -10 -8 0 -14 -5 -14 -12 0 -6 -2 -9 -5 -6
-11 11 8 38 27 38 10 0 16 -4 13 -10z m15 -41 c0 -4 -7 -6 -15 -3 -8 4 -15 10
-15 15 0 4 7 6 15 3 8 -4 15 -10 15 -15z m261 -5 c12 -15 11 -16 -11 -9 -35
10 -49 25 -23 25 11 0 27 -7 34 -16z m-134 -68 c-7 -18 -37 -22 -37 -5 0 6 7
9 15 6 12 -5 12 -1 4 21 -10 25 -9 26 7 10 9 -9 14 -24 11 -32z m-142 4 c18
-8 17 -9 -7 -9 -16 -1 -28 4 -28 9 0 12 8 12 35 0z m95 0 c0 -5 -2 -10 -4 -10
-3 0 -8 5 -11 10 -3 6 -1 10 4 10 6 0 11 -4 11 -10z m299 -417 c8 -15 13 -16
31 -5 19 11 21 11 18 -5 -2 -13 5 -19 26 -21 18 -2 26 0 22 7 -5 7 3 9 24 5
19 -4 30 -2 30 5 0 6 5 11 12 11 6 0 9 -3 5 -6 -3 -3 -2 -17 4 -31 7 -18 6
-22 -3 -17 -7 5 -42 10 -78 12 -36 2 -67 8 -68 13 -3 6 -9 5 -18 -2 -15 -12
-18 -4 -15 31 2 13 1 13 -8 0 -5 -8 -8 -17 -6 -20 2 -4 -1 -7 -8 -7 -7 0 -13
8 -13 18 0 10 4 15 8 13 4 -3 8 0 8 5 0 17 18 13 29 -6z m852 -109 c81 -78 89
-129 38 -232 -35 -73 -123 -174 -147 -170 -8 2 -19 -6 -26 -17 -6 -11 -14 -22
-18 -25 -6 -5 -15 -36 -17 -63 -1 -5 -6 -5 -13 -1 -8 5 -9 2 -5 -10 4 -9 3
-15 -2 -11 -14 8 -10 63 6 69 7 3 13 10 13 15 0 5 -12 5 -29 -2 -45 -17 -60 1
-59 76 l0 62 40 19 c22 10 48 19 57 20 20 1 51 29 51 46 0 6 5 8 10 5 21 -13
9 16 -20 48 -16 19 -30 37 -30 40 0 6 80 26 100 25 57 -4 80 25 56 71 -43 82
-169 50 -191 -49 -8 -37 -18 -38 -33 -5 -16 35 -15 56 4 84 24 34 72 52 127
48 40 -4 55 -11 88 -43z m-1024 14 c-3 -8 -6 -5 -6 6 -1 11 2 17 5 13 3 -3 4
-12 1 -19z m381 12 c12 0 22 -4 22 -9 0 -14 -74 -11 -116 5 l-39 15 55 -5 c30
-3 65 -6 78 -6z m-391 -52 c-3 -8 -6 -5 -6 6 -1 11 2 17 5 13 3 -3 4 -12 1
-19z m-680 -40 c-2 -13 -4 -5 -4 17 -1 22 1 32 4 23 2 -10 2 -28 0 -40z m1473
-162 c0 -3 -4 -8 -10 -11 -5 -3 -10 -1 -10 4 0 6 5 11 10 11 6 0 10 -2 10 -4z
m-89 -253 c-8 -15 -10 -15 -11 -2 0 17 10 32 18 25 2 -3 -1 -13 -7 -23z m-391
-23 c0 -5 -2 -10 -4 -10 -3 0 -8 5 -11 10 -3 6 -1 10 4 10 6 0 11 -4 11 -10z
m527 -56 c-9 -9 -28 6 -21 18 4 6 10 6 17 -1 6 -6 8 -13 4 -17z m-630 -106
c-3 -8 -6 -5 -6 6 -1 11 2 17 5 13 3 -3 4 -12 1 -19z m1170 -460 c-3 -7 -5 -2
-5 12 0 14 2 19 5 13 2 -7 2 -19 0 -25z m57 -52 c-3 -9 -14 -16 -24 -16 -22 0
-47 -28 -56 -65 -4 -16 -14 -36 -22 -44 -13 -13 -14 -12 -7 9 17 58 34 88 60
108 15 12 31 19 36 16 5 -3 9 0 9 7 0 7 2 10 5 7 3 -3 3 -13 -1 -22z m-1548
-65 c-14 -15 -26 -32 -26 -39 0 -6 -6 -9 -14 -6 -8 3 -18 0 -22 -7 -10 -17
-12 -59 -2 -59 4 0 8 -11 8 -25 0 -14 4 -24 9 -23 5 2 56 -63 113 -144 98
-138 108 -156 145 -270 23 -68 44 -141 47 -163 6 -37 5 -39 -9 -21 -10 14 -15
15 -15 6 0 -22 -23 5 -37 43 l-11 32 -1 -35 c-1 -30 -3 -32 -15 -20 -8 8 -35
69 -60 135 -45 118 -69 159 -173 302 -58 78 -103 158 -103 180 0 28 162 159
182 147 5 -4 -2 -18 -16 -33z m231 -91 c29 0 61 5 71 11 14 9 25 6 56 -14 20
-14 43 -24 51 -21 7 3 22 -3 32 -13 12 -12 33 -18 61 -18 32 0 41 -3 37 -14
-4 -11 -3 -11 9 -2 23 19 132 20 148 2 13 -16 17 -102 6 -131 -4 -8 -9 -25
-11 -38 -4 -18 -2 -22 10 -18 12 5 13 4 5 -7 -7 -7 -13 -22 -15 -33 -1 -10 -5
-23 -9 -29 -3 -5 -6 -34 -6 -62 -1 -44 2 -53 17 -53 18 0 62 40 45 40 -5 0 -1
5 8 11 9 5 15 16 12 24 -4 8 6 35 20 60 15 25 24 45 21 45 -4 0 1 7 9 16 9 8
13 21 9 27 -3 7 -3 9 2 5 4 -4 16 -3 26 2 12 7 19 6 22 -3 3 -8 13 -4 32 13
16 14 25 18 20 10 -6 -12 -5 -12 5 -3 12 11 15 11 71 -18 17 -8 30 -7 60 6 21
10 36 22 33 26 -3 5 -2 15 3 22 4 6 8 37 8 67 0 44 3 55 18 58 14 3 17 -4 17
-43 0 -26 7 -62 15 -80 15 -30 15 -35 -5 -67 -11 -20 -33 -45 -50 -58 -16 -12
-27 -27 -25 -33 6 -17 -22 -47 -77 -85 -25 -17 -52 -38 -60 -45 -7 -6 -41 -30
-75 -52 -34 -22 -65 -47 -68 -56 -3 -9 -17 -29 -30 -45 -14 -16 -33 -46 -42
-66 -9 -20 -21 -34 -26 -31 -6 3 -7 1 -3 -5 3 -6 -7 -31 -24 -55 -16 -25 -30
-49 -30 -55 0 -5 -7 -13 -16 -16 -8 -3 -12 -10 -9 -16 3 -5 1 -10 -5 -10 -7 0
-9 -7 -6 -16 4 -11 -1 -22 -13 -30 -10 -8 -29 -33 -41 -56 -12 -24 -26 -45
-31 -48 -5 -3 -10 -15 -12 -25 -1 -11 -11 -33 -21 -48 -29 -43 -40 -19 -23 47
15 56 15 56 -9 75 -23 18 -23 20 -6 25 11 4 27 15 37 26 17 19 17 22 1 62 -10
27 -33 56 -61 77 -42 33 -44 37 -44 87 0 93 -34 181 -123 310 -50 75 -125 224
-152 307 -9 26 -16 73 -16 105 l0 57 46 -52 c46 -52 48 -53 101 -53z m1033
-314 c0 -18 -28 -41 -38 -31 -4 4 -1 10 6 12 6 3 12 11 12 19 0 8 5 14 10 14
6 0 10 -6 10 -14z m-1826 -148 c-3 -13 -6 -29 -6 -35 -1 -7 -6 -13 -11 -13 -6
0 -2 -9 7 -19 17 -19 17 -20 -6 -34 -12 -8 -34 -18 -48 -22 -14 -4 -41 -18
-60 -31 -51 -35 -59 -32 -58 24 1 26 -2 54 -7 61 -6 11 -4 13 8 8 9 -3 40 1
69 9 29 8 59 15 66 16 6 1 10 4 7 6 -4 5 33 52 41 52 2 0 0 -10 -2 -22z m1443
-160 c-13 -18 -34 -62 -46 -97 -26 -73 -78 -149 -103 -150 -9 -1 -31 -18 -50
-40 -18 -21 -47 -46 -65 -55 l-32 -16 15 38 c19 43 41 82 100 172 70 106 104
137 145 132 4 -1 5 6 3 16 -3 11 5 23 23 34 36 22 41 7 10 -34z"/>
<path d="M3380 2367 c0 -7 4 -17 8 -22 14 -16 -7 -89 -34 -118 -16 -17 -20
-27 -11 -27 21 0 54 41 64 80 7 25 6 44 -4 68 -14 33 -23 41 -23 19z"/>
<path d="M3257 2193 c-13 -12 -7 -33 8 -33 8 0 15 9 15 20 0 20 -11 26 -23 13z"/>
<path d="M3016 353 c-6 -14 -5 -15 5 -6 7 7 10 15 7 18 -3 3 -9 -2 -12 -12z"/>
<path d="M2009 3343 c-13 -16 -12 -17 4 -4 9 7 17 15 17 17 0 8 -8 3 -21 -13z"/>
<path d="M2010 2210 c0 -5 5 -10 10 -10 6 0 10 5 10 10 0 6 -4 10 -10 10 -5 0
-10 -4 -10 -10z"/>
<path d="M1985 1651 c-6 -11 9 -23 19 -14 9 9 7 23 -3 23 -6 0 -12 -4 -16 -9z"/>
<path d="M1980 1609 c0 -5 5 -7 10 -4 6 3 10 8 10 11 0 2 -4 4 -10 4 -5 0 -10
-5 -10 -11z"/>
<path d="M1515 1137 c-18 -6 -37 -23 -48 -44 l-17 -34 30 18 c33 19 90 74 74
72 -5 -1 -22 -6 -39 -12z"/>
<path d="M1034 928 c-3 -5 -3 -12 0 -15 3 -3 0 -13 -7 -21 -10 -13 -9 -14 3
-10 8 3 14 12 14 21 -1 9 1 15 5 13 4 -3 13 -1 20 3 9 6 7 10 -8 14 -12 3 -24
1 -27 -5z"/>
<path d="M1060 895 c0 -9 6 -12 15 -9 8 4 15 7 15 9 0 2 -7 5 -15 9 -9 3 -15
0 -15 -9z"/>
<path d="M996 879 c4 -8 -1 -9 -16 -4 -16 5 -21 4 -18 -6 7 -20 42 -17 46 4 2
9 -2 17 -8 17 -6 0 -8 -5 -4 -11z"/>
<path d="M928 872 c-10 -2 -18 -13 -18 -24 0 -20 1 -20 19 -4 17 16 19 16 25
0 4 -9 9 -14 12 -11 11 11 -21 43 -38 39z"/>
<path d="M745 850 c3 -5 -9 -9 -30 -8 -25 1 -43 -6 -63 -24 -15 -14 -49 -33
-75 -43 -27 -10 -58 -31 -72 -49 -28 -36 -96 -55 -165 -45 -24 3 -61 2 -80 -2
-31 -7 -186 -20 -242 -20 -17 0 -18 -23 -18 -330 l0 -329 98 0 c86 0 101 3
117 20 10 11 24 20 31 20 7 0 18 -9 24 -20 10 -19 21 -20 244 -20 l233 0 13
27 c24 52 30 82 15 77 -8 -3 -21 -17 -30 -30 -19 -30 -51 -31 -61 -2 -8 27 20
52 45 39 10 -6 21 -4 30 6 12 13 11 14 -5 11 -12 -2 -24 5 -32 22 -12 22 -11
27 8 42 28 22 55 10 65 -29 6 -26 10 -21 53 62 26 50 57 104 70 122 12 17 22
37 22 45 0 20 82 196 117 252 28 44 29 51 16 64 -10 10 -17 12 -21 4 -11 -16
-39 9 -36 31 2 13 -2 17 -12 13 -18 -7 -18 -1 2 18 14 15 13 16 -15 16 -20 0
-31 -5 -31 -14 0 -8 -14 -15 -34 -18 -31 -3 -35 -1 -40 25 -3 15 -10 26 -15
23 -5 -3 -11 1 -15 9 -6 17 -46 21 -46 5 0 -5 5 -10 12 -10 6 0 8 -3 4 -7 -4
-4 -17 5 -30 20 -13 15 -26 24 -30 20 -3 -3 -6 -1 -6 5 0 7 -5 12 -11 12 -5 0
-7 -4 -4 -10z m-40 -140 c4 -6 3 -10 -2 -9 -4 1 -16 -1 -26 -6 -20 -9 -32 -1
-22 14 8 14 42 14 50 1z m233 -62 c7 -7 12 -20 12 -30 0 -10 6 -18 13 -19 6 0
2 -4 -10 -9 -40 -16 -98 28 -78 60 9 14 48 13 63 -2z m-270 -49 c-13 -3 -26
-1 -30 5 -11 16 13 25 34 13 17 -11 17 -12 -4 -18z m-221 -585 c-3 -3 -12 -4
-19 -1 -8 3 -5 6 6 6 11 1 17 -2 13 -5z"/>
<path d="M990 827 c0 -19 16 -31 24 -18 3 5 -1 14 -9 21 -12 10 -15 10 -15 -3z"/>
<path d="M1090 750 c0 -3 4 -10 8 -17 6 -9 11 -7 20 7 10 16 9 18 -8 17 -11
-1 -20 -4 -20 -7z"/>
<path d="M1430 747 c-24 -19 -52 -77 -46 -93 3 -8 1 -12 -4 -9 -10 6 -69 -81
-70 -102 0 -21 25 -15 47 11 12 13 19 26 17 29 -2 2 2 10 11 17 8 7 15 22 15
33 0 11 6 28 14 36 13 16 39 82 34 87 -2 1 -10 -3 -18 -9z"/>
<path d="M1287 688 c-16 -38 -30 -108 -23 -108 8 0 56 108 56 125 0 26 -19 16
-33 -17z"/>
<path d="M1190 620 c0 -5 5 -10 11 -10 5 0 7 5 4 10 -3 6 -8 10 -11 10 -2 0
-4 -4 -4 -10z"/>
<path d="M1133 594 c-7 -7 -13 -27 -13 -44 0 -21 4 -30 13 -27 6 2 11 12 10
23 -1 10 3 26 8 35 11 22 -2 31 -18 13z"/>
<path d="M1020 497 c-58 -83 -87 -247 -56 -320 9 -23 20 -36 27 -32 6 5 10 0
8 -11 -2 -11 2 -29 9 -41 7 -13 10 -23 6 -23 -3 0 -1 -7 6 -15 6 -8 9 -19 5
-24 -4 -7 1 -8 11 -4 11 4 15 2 11 -4 -7 -11 60 -29 71 -19 3 3 -3 6 -14 6
-16 0 -17 2 -4 10 9 6 10 10 3 10 -6 0 -15 20 -18 44 -4 25 -13 47 -21 50 -8
3 -14 11 -14 19 0 7 -9 30 -20 52 -24 47 -25 106 -5 229 8 49 14 91 12 92 -1
1 -9 -8 -17 -19z"/>
<path d="M1968 55 c-6 -11 10 -61 17 -53 2 2 1 17 -3 33 -5 16 -11 25 -14 20z"/>
<path d="M2020 40 c0 -5 5 -10 11 -10 5 0 7 5 4 10 -3 6 -8 10 -11 10 -2 0 -4
-4 -4 -10z"/>
</g>
</svg>
